<?xml version="1.0" standalone="no"?><!DOCTYPE svg PUBLIC "-//W3C//DTD SVG 1.1//EN" "http://www.w3.org/Graphics/SVG/1.1/DTD/svg11.dtd"><svg t="1623509809596" class="icon" viewBox="0 0 1024 1024" version="1.1" xmlns="http://www.w3.org/2000/svg" p-id="3451" xmlns:xlink="http://www.w3.org/1999/xlink" width="200" height="200"><defs><style type="text/css"></style></defs><path d="M777.216 479.232H167.936c-9.556992 0-17.408 3.072-23.552 9.216s-9.216 13.995008-9.216 23.552 3.072 17.408 9.216 23.552 13.995008 9.216 23.552 9.216h609.28L537.6 783.36c-6.144 6.827008-9.216 14.676992-9.216 23.552s3.243008 16.555008 9.728 23.04c6.484992 6.484992 14.164992 9.728 23.04 9.728s16.724992-3.072 23.552-9.216l294.912-294.912c6.144-6.827008 9.216-14.676992 9.216-23.552s-3.072-16.724992-9.216-23.552L584.704 193.536c-6.827008-6.144-14.676992-9.216-23.552-9.216s-16.555008 3.243008-23.04 9.728c-6.484992 6.484992-9.728 14.164992-9.728 23.04s3.072 16.724992 9.216 23.552l239.616 238.592z" p-id="3452" fill="#ffffff"></path></svg>