<?xml version="1.0" standalone="no"?><!DOCTYPE svg PUBLIC "-//W3C//DTD SVG 1.1//EN" "http://www.w3.org/Graphics/SVG/1.1/DTD/svg11.dtd"><svg t="1631196238331" class="icon" viewBox="0 0 1024 1024" version="1.1" xmlns="http://www.w3.org/2000/svg" p-id="10043" xmlns:xlink="http://www.w3.org/1999/xlink" width="200" height="200"><defs><style type="text/css"></style></defs><path d="M387.444364 821.341091a32.023273 32.023273 0 1 1 0 64.046545H213.317818a202.658909 202.658909 0 0 1-202.658909-202.658909v-384a202.658909 202.658909 0 0 1 202.658909-202.658909H768a202.658909 202.658909 0 0 1 202.658909 202.658909v88.808728a32.023273 32.023273 0 1 1-64.046545 0V298.682182a138.705455 138.705455 0 0 0-138.658909-138.658909H213.317818a138.705455 138.705455 0 0 0-138.658909 138.658909v384a138.705455 138.705455 0 0 0 138.658909 138.658909h174.126546zM288.023273 256h320a32.023273 32.023273 0 1 1 0 64.046545H288.023273a32.023273 32.023273 0 1 1 0-64.046545z m-42.682182 341.317818h149.317818a32.023273 32.023273 0 1 1 0 64.046546H245.341091a32.023273 32.023273 0 1 1 0-64.046546z m-42.682182-170.635636h149.317818a32.023273 32.023273 0 1 1 0 64.046545H202.658909a31.976727 31.976727 0 0 1 0-64.046545z m256 0h21.317818a32.023273 32.023273 0 1 1 0 64.046545h-21.317818a32.023273 32.023273 0 1 1 0-64.046545zM605.090909 512h279.272727l130.327273 232.727273-130.327273 232.727272h-279.272727l-130.327273-232.727272 130.327273-232.727273z m37.236364 55.854545L544.581818 744.727273l97.745455 176.872727H837.818182l107.054545-176.872727-97.745454-176.872728h-204.8z m104.773818 242.827637a64.232727 64.232727 0 0 1-64.418909-64c0-35.328 28.858182-64 64.418909-64s64.418909 28.672 64.418909 64a64.232727 64.232727 0 0 1-64.418909 64z" p-id="10044" fill="#f5f5f5"></path></svg>