<?xml version="1.0" standalone="no"?><!DOCTYPE svg PUBLIC "-//W3C//DTD SVG 1.1//EN" "http://www.w3.org/Graphics/SVG/1.1/DTD/svg11.dtd"><svg t="1631200872680" class="icon" viewBox="0 0 1024 1024" version="1.1" xmlns="http://www.w3.org/2000/svg" p-id="14279" xmlns:xlink="http://www.w3.org/1999/xlink" width="200" height="200"><defs><style type="text/css"></style></defs><path d="M527.515152 954.181818H186.181818c-80.678788 0-147.393939-66.715152-147.393939-147.393939V201.69697c0-80.678788 66.715152-147.393939 147.393939-147.39394h605.090909c80.678788 0 147.393939 66.715152 147.39394 147.39394v325.818182c0 21.721212-17.066667 38.787879-38.787879 38.787878s-38.787879-17.066667-38.787879-38.787878V201.69697c0-38.787879-31.030303-69.818182-69.818182-69.818182H186.181818c-38.787879 0-69.818182 31.030303-69.818182 69.818182v605.090909c0 38.787879 31.030303 69.818182 69.818182 69.818182h341.333334c21.721212 0 38.787879 17.066667 38.787878 38.787878s-17.066667 38.787879-38.787878 38.787879z" p-id="14280" fill="#42E2F4"></path><path d="M668.70303 615.951515c-20.169697 13.963636-37.236364 32.581818-52.751515 51.2h-12.412121v18.618182c-13.963636 23.272727-23.272727 49.648485-27.927273 76.024242h-26.375757V667.151515h-127.224243v-52.751515h127.224243V574.060606h-107.054546V350.642424h63.612121c-12.412121-24.824242-24.824242-46.545455-40.339394-65.163636l51.2-17.066667c15.515152 21.721212 27.927273 43.442424 38.787879 68.266667l-34.133333 15.515151h72.921212c15.515152-26.375758 27.927273-55.854545 38.787879-86.884848l52.751515 18.618182c-10.860606 24.824242-23.272727 48.09697-35.684849 68.266666h62.060607V574.060606h-110.157576v40.339394h66.715151v1.551515z m-356.848485-164.460606l-7.757575 71.369697h105.50303c0 91.539394-3.10303 152.048485-7.757576 183.078788-6.206061 31.030303-34.133333 48.09697-82.230303 51.2-13.963636 0-27.927273-1.551515-41.890909-1.551515l-13.963636-51.2c13.963636 1.551515 27.927273 3.10303 43.442424 3.10303 26.375758 0 41.890909-7.757576 44.993939-24.824242 3.10303-17.066667 6.206061-54.30303 6.206061-110.157576H248.242424L263.757576 403.393939h89.987879v-69.818181h-99.29697v-46.545455h155.151515V449.939394h-97.745455v1.551515z m352.19394 77.575758v-41.890909h-60.509091v41.890909h60.509091z m-113.260606 0v-41.890909h-57.406061v41.890909h57.406061z m-58.957576-88.436364h57.406061v-43.442424h-57.406061v43.442424z m111.709091-43.442424v43.442424h60.509091v-43.442424h-60.509091zM799.030303 992.969697C906.084848 992.969697 992.969697 906.084848 992.969697 799.030303S906.084848 605.090909 799.030303 605.090909 605.090909 691.975758 605.090909 799.030303 691.975758 992.969697 799.030303 992.969697z m-26.375758-166.012121l99.29697-99.29697c12.412121-12.412121 31.030303-12.412121 43.442424 0s12.412121 31.030303 0 43.442424l-121.018181 121.018182c-12.412121 12.412121-31.030303 12.412121-43.442425 0l-65.163636-65.163636c-12.412121-12.412121-12.412121-31.030303 0-43.442424s31.030303-12.412121 43.442424 0l43.442424 43.442424z" p-id="14281" fill="#42E2F4"></path></svg>