<svg t="1654346147181" class="icon" viewBox="0 0 1170 1024" version="1.1" xmlns="http://www.w3.org/2000/svg" p-id="4924" width="300" height="300"><path d="M811.008 271.945143H147.675429l198.656-198.509714A43.154286 43.154286 0 0 0 285.257143 12.653714L12.653714 285.037714a43.008 43.008 0 0 0 0 60.928l272.749715 272.310857a43.154286 43.154286 0 0 0 61.074285-60.928L150.308571 361.764571h660.553143a269.458286 269.458286 0 1 1 0 538.916572H226.962286a44.982857 44.982857 0 1 0 0 89.965714h583.899428c198.509714 0 359.424-160.914286 359.424-359.424a359.277714 359.277714 0 0 0-359.277714-359.277714z" fill="#e6e6e6" p-id="4925"></path></svg>