<svg t="1654348809809" class="icon" viewBox="0 0 1024 1024" version="1.1" xmlns="http://www.w3.org/2000/svg" p-id="5983" width="300" height="300"><path d="M665.6 224H205.3c-61.8 0-112 50.2-112 112v512c0 61.8 50.2 112 112 112h460.3c61.8 0 112-50.2 112-112V336c0-61.8-50.2-112-112-112z m48 624c0 26.5-21.5 48-48 48H205.3c-26.5 0-48-21.5-48-48V336c0-26.5 21.5-48 48-48h460.3c26.5 0 48 21.5 48 48v512z" p-id="5984" fill="#e6e6e6"></path><path d="M820.7 64H301.3c-61.8 0-112 50.2-112 112h64c0-26.5 21.5-48 48-48h519.4c26.5 0 48 21.5 48 48v576c0 26.5-21.5 48-48 48v64c61.8 0 112-50.2 112-112V176c0-61.8-50.2-112-112-112z" p-id="5985" fill="#e6e6e6"></path><path d="M243.5 400h384v64h-384zM243.5 560h384v64h-384zM243.5 720h246.8v64H243.5z" p-id="5986" fill="#e6e6e6"></path></svg>