<svg t="1631238400966" class="icon" viewBox="0 0 1024 1024" version="1.1" xmlns="http://www.w3.org/2000/svg" p-id="9063" width="200" height="200"><path d="M798.877538 780.169846L218.663385 780.169846c-43.716923 0-79.281231-35.603692-79.281231-79.281231L139.382154 323.111385c0-43.638154 35.564308-79.281231 79.281231-79.281231l580.214154 0c43.716923 0 79.281231 35.603692 79.281231 79.281231l0 377.777231C878.158769 744.526769 842.633846 780.169846 798.877538 780.169846zM218.663385 323.111385l0 377.777231 580.292923 0-0.078769-377.777231L218.663385 323.111385zM79.281231 925.696l190.464 0c21.897846 0 39.620923-17.723077 39.620923-39.660308 0-21.897846-17.723077-39.620923-39.620923-39.620923L79.281231 846.414769l0-185.659077c0-21.897846-17.723077-39.660308-39.620923-39.660308S0 638.897231 0 660.755692l0 185.659077C0 890.092308 35.564308 925.696 79.281231 925.696zM984.339692 621.174154c-21.897846 0-39.620923 17.723077-39.620923 39.620923l0 185.619692-190.424615 0c-21.937231 0-39.660308 17.723077-39.660308 39.620923 0 21.937231 17.723077 39.660308 39.660308 39.660308l190.424615 0c43.716923 0 79.281231-35.564308 79.281231-79.281231l0-185.619692C1024 638.936615 1006.276923 621.174154 984.339692 621.174154zM0 177.585231l0 185.659077c0 21.858462 17.723077 39.620923 39.620923 39.620923s39.620923-17.762462 39.620923-39.620923L79.241846 177.585231l190.464 0c21.897846 0 39.620923-17.723077 39.620923-39.620923s-17.723077-39.620923-39.620923-39.620923L79.281231 98.343385C35.564308 98.304 0 133.907692 0 177.585231zM1024 363.204923L1024 177.585231c0-43.677538-35.524923-79.281231-79.281231-79.281231l-190.424615 0c-21.937231 0-39.660308 17.723077-39.660308 39.620923s17.723077 39.620923 39.660308 39.620923l190.424615 0 0 185.619692c0 21.858462 17.723077 39.581538 39.620923 39.581538C1006.276923 402.825846 1024 385.063385 1024 363.204923z" fill="#ffffff" p-id="9064"></path></svg>