<svg t="1631237409179" class="icon" viewBox="0 0 1024 1024" version="1.1" xmlns="http://www.w3.org/2000/svg" p-id="1567" width="200" height="200"><path d="M296.96 106.666667a32 32 0 0 0-32 32v118.613333H139.733333a32 32 0 0 0 0 64h157.226667a32 32 0 0 0 32-32V138.453333A32 32 0 0 0 296.96 106.666667zM733.653333 327.68h150.613334a32 32 0 0 0 0-64h-118.613334V138.666667a32 32 0 0 0-64 0v157.013333a32 32 0 0 0 32 32zM884.266667 704h-157.226667a32 32 0 0 0-32 32v150.613333a32 32 0 1 0 64 0V768h125.226667a32 32 0 0 0 0-64zM290.346667 696.106667H139.733333a32 32 0 1 0 0 64h118.613334v125.226666a32 32 0 0 0 64 0v-157.226666a32 32 0 0 0-32-32zM661.333333 336H362.666667A26.24 26.24 0 0 0 336.853333 362.666667v298.666666A26.24 26.24 0 0 0 362.666667 686.506667h298.666666A26.24 26.24 0 0 0 686.933333 661.333333V362.666667a26.24 26.24 0 0 0-25.6-26.666667z m-26.24 298.666667H389.333333V388.48h245.12z" p-id="1568" fill="#ffffff"></path></svg>