<svg xmlns="http://www.w3.org/2000/svg" viewBox="0 0 120 20"><path d="M.896,13.75977v-11.52H3.45605L7.35986,6.896,11.248,2.23975h2.57617v11.52H11.32813v-7.728L7.35986,10.76758,3.376,6.04785v7.71192Z" style="fill:#fff"/><path d="M15.69629,13.75977v-10a2.18059,2.18059,0,0,1,.31982-1.15186,2.48209,2.48209,0,0,1,.84815-.84814,2.20945,2.20945,0,0,1,1.168-.31983H21.584V3.90381H18.144V4.48H21.584V6.92773H18.144v6.832Z" style="fill:#fff"/><path d="M24.04736,13.43994a2.41285,2.41285,0,0,1-.83984-.84814,2.22332,2.22332,0,0,1-.312-1.15186V4.48h2.44775v6.83154h4.51221V4.48h2.44775v6.96a2.22332,2.22332,0,0,1-.312,1.15186,2.41285,2.41285,0,0,1-.83984.84814,2.21068,2.21068,0,0,1-1.168.31983H25.21533A2.20945,2.20945,0,0,1,24.04736,13.43994Z" style="fill:#fff"/><path d="M34.03125,13.75977V4.48h7.08838a2.21076,2.21076,0,0,1,1.168.31982,2.41288,2.41288,0,0,1,.83984.84815,2.22331,2.22331,0,0,1,.312,1.15185v6.96H40.9917v-6.832H36.47949v6.832Z" style="fill:#fff"/><path d="M45.91992,13.43994a2.48215,2.48215,0,0,1-.84814-.84814,2.1806,2.1806,0,0,1-.31983-1.15186v-.46435h2.44776v.33593h4.5122v-.96H47.07178a2.18059,2.18059,0,0,1-1.15186-.31982,2.48218,2.48218,0,0,1-.84814-.84815A2.18059,2.18059,0,0,1,44.752,8.03174V6.7998A2.18059,2.18059,0,0,1,45.07178,5.648a2.48218,2.48218,0,0,1,.84814-.84815A2.18068,2.18068,0,0,1,47.07178,4.48h4.76806a2.20953,2.20953,0,0,1,1.168.31982A2.48221,2.48221,0,0,1,53.856,5.648a2.18058,2.18058,0,0,1,.31982,1.15185v.46387H51.71191V6.92773h-4.5122v.96h4.64013a2.20985,2.20985,0,0,1,1.168.32031,2.48077,2.48077,0,0,1,.84815.84765,2.18228,2.18228,0,0,1,.31982,1.15235v1.23193A2.18059,2.18059,0,0,1,53.856,12.5918a2.48218,2.48218,0,0,1-.84815.84814,2.20945,2.20945,0,0,1-1.168.31983H47.07178A2.1806,2.1806,0,0,1,45.91992,13.43994Z" style="fill:#fff"/><path d="M61.00732,13.75977V2.25586h9.6001a1.84742,1.84742,0,0,1,.96778.26367,1.9812,1.9812,0,0,1,.69628.69629,1.85,1.85,0,0,1,.25586.96v3.376a1.85,1.85,0,0,1-.25586.96,1.98128,1.98128,0,0,1-.69628.69629,1.84742,1.84742,0,0,1-.96778.26367h-8.3042v4.28809Zm1.91993-5.6001h7.68017a.61483.61483,0,0,0,.43994-.17578.5747.5747,0,0,0,.18409-.43213v-3.376a.62856.62856,0,0,0-.624-.624H62.92725a.62854.62854,0,0,0-.624.624v3.376a.57473.57473,0,0,0,.18408.43213A.614.614,0,0,0,62.92725,8.15967Z" style="fill:#fff"/><path d="M74.56689,13.49561a2.01455,2.01455,0,0,1-.70361-.70362,1.845,1.845,0,0,1-.26416-.96826V1.43994h1.312V11.82373a.62854.62854,0,0,0,.624.624H77.103v1.312H75.53516A1.845,1.845,0,0,1,74.56689,13.49561Z" style="fill:#fff"/><path d="M80.207,13.75977a1.845,1.845,0,0,1-.96826-.26416,2.01446,2.01446,0,0,1-.70361-.70362,1.845,1.845,0,0,1-.26416-.96826V8.46387h8.12793V6.41553a.62773.62773,0,0,0-.624-.62354H78.271V4.48h7.5039a1.877,1.877,0,0,1,.98389.26367,2.02128,2.02128,0,0,1,.7041.7041,1.84453,1.84453,0,0,1,.26416.96778v7.34424Zm0-1.312h6.1919V9.77588H79.583v2.04785a.62854.62854,0,0,0,.624.624Z" style="fill:#fff"/><path d="M90.92627,17.43994V16.11182h5.792a.62772.62772,0,0,0,.624-.624v-1.728h-6.1919a1.842,1.842,0,0,1-.96777-.26416,2.01585,2.01585,0,0,1-.7041-.70362,1.845,1.845,0,0,1-.26416-.96826v-7.312h1.312v7.312a.62854.62854,0,0,0,.624.624h5.56787a.62771.62771,0,0,0,.624-.624v-7.312h1.312V15.48779a1.92385,1.92385,0,0,1-.25586.98389,1.95831,1.95831,0,0,1-.6958.7041,1.8791,1.8791,0,0,1-.98438.26416Z" style="fill:#fff"/><path d="M100.96729,13.49561a2.01587,2.01587,0,0,1-.70411-.70362,1.845,1.845,0,0,1-.26416-.96826V6.41553a1.84453,1.84453,0,0,1,.26416-.96778,2.02131,2.02131,0,0,1,.70411-.7041,1.84611,1.84611,0,0,1,.96777-.26367h5.56787a1.87868,1.87868,0,0,1,.98437.26367,2.024,2.024,0,0,1,.70362.7041,1.84453,1.84453,0,0,1,.26416.96778V9.77588h-8.144v2.04785a.62854.62854,0,0,0,.624.624h7.52v1.312h-7.52A1.842,1.842,0,0,1,100.96729,13.49561Zm.34375-5.03174H108.127V6.41553a.62771.62771,0,0,0-.624-.62354h-5.56787a.62771.62771,0,0,0-.624.62354Z" style="fill:#fff"/><path d="M111.00684,13.75977V6.41553a1.84453,1.84453,0,0,1,.26416-.96778,2.01989,2.01989,0,0,1,.70361-.7041,1.8491,1.8491,0,0,1,.96826-.26367h5.21582V5.792h-5.21582a.62771.62771,0,0,0-.624.62354v7.34424Z" style="fill:#fff"/></svg>