<svg t="1659325044550" class="icon" viewBox="0 0 1027 1024" version="1.1" xmlns="http://www.w3.org/2000/svg" p-id="3130" width="300" height="300"><path d="M776.533333 870.4l8.533334-4.266667c121.6-29.866667 213.333333-110.933333 236.8-211.2 12.8-57.6 2.133333-104.533333-2.133334-123.733333-27.733333-108.8-121.6-187.733333-236.8-198.4-10.666667 0-21.333333-2.133333-29.866666 0-51.2-93.866667-149.333333-153.6-256-153.6-142.933333 0-264.533333 104.533333-288 241.066667-113.066667 10.666667-202.666667 110.933333-202.666667 228.266666C6.4 770.133333 104.533333 874.666667 228.266667 874.666667H746.666667m0-64H228.266667c-87.466667 0-157.866667-76.8-157.866667-162.133334 0-87.466667 70.4-162.133333 157.866667-162.133333 2.133333 0 2.133333-2.133333 4.266666-2.133333l34.133334 2.133333 2.133333-32c8.533333-119.466667 108.8-211.2 228.266667-211.2 89.6 0 170.666667 53.333333 209.066666 134.4l10.666667 21.333333 23.466667-2.133333c12.8-2.133333 23.466667-2.133333 38.4-2.133333 87.466667 8.533333 157.866667 68.266667 179.2 151.466666 4.266667 12.8 12.8 49.066667 2.133333 91.733334-17.066667 74.666667-91.733333 140.8-185.6 166.4" fill="#bfbfbf" p-id="3131"></path><path d="M544 657.066667h-55.466667c0-21.333333 2.133333-38.4 6.4-49.066667 6.4-12.8 17.066667-25.6 36.266667-38.4 17.066667-12.8 25.6-25.6 25.6-42.666667 0-14.933333-4.266667-25.6-12.8-34.133333-6.4-6.4-17.066667-8.533333-27.733333-8.533333-12.8 0-23.466667 4.266667-32 10.666666-8.533333 6.4-12.8 19.2-14.933334 38.4h-59.733333c0-34.133333 10.666667-59.733333 34.133333-76.8 19.2-14.933333 40.533333-21.333333 68.266667-21.333333 34.133333 0 61.866667 8.533333 81.066667 25.6 19.2 14.933333 27.733333 38.4 27.733333 66.133333 0 17.066667-4.266667 32-12.8 42.666667-6.4 10.666667-19.2 21.333333-38.4 34.133333-10.666667 6.4-17.066667 12.8-19.2 19.2-4.266667 8.533333-6.4 19.2-6.4 34.133334z m4.266667 27.733333v59.733333h-61.866667v-59.733333h61.866667z" fill="#bfbfbf" p-id="3132"></path></svg>