<?xml version="1.0" standalone="no"?><!DOCTYPE svg PUBLIC "-//W3C//DTD SVG 1.1//EN" "http://www.w3.org/Graphics/SVG/1.1/DTD/svg11.dtd"><svg t="1630574893799" class="icon" viewBox="0 0 1024 1024" version="1.1" xmlns="http://www.w3.org/2000/svg" p-id="4264" xmlns:xlink="http://www.w3.org/1999/xlink" width="200" height="200"><defs><style type="text/css"></style></defs><path d="M511.75280761 844.72094727L300.23852539 666.74243164H176.64233398V357.09277344h123.59619141l211.51428223-177.97851563v665.60668946z" p-id="4265" fill="#ffffff"></path><path d="M511.75280761 877.67993164c-7.66296387 0-15.16113281-2.63671875-21.25854491-7.74536133L288.29089355 699.70141602H176.64233398c-18.20983887 0-32.95898438-14.74914551-32.95898437-32.95898438V357.09277344c0-18.20983887 14.74914551-32.95898438 32.95898437-32.95898438h111.64855958L490.57666016 153.90063477c9.80529786-8.23974609 23.48327637-10.05249023 35.10131836-4.69665528 11.618042 5.43823242 19.03381348 17.05627442 19.03381348 29.91027832v665.60668946c0 12.85400391-7.41577148 24.4720459-19.03381348 29.91027832-4.44946289 2.05993653-9.22851563 3.04870606-13.92517091 3.04870605zM209.60131836 633.78344727h90.63720703c7.74536133 0 15.24353028 2.71911622 21.25854492 7.74536132l157.29675294 132.41271974v-524.04785157L321.49707031 382.30639648c-5.93261719 5.02624512-13.43078614 7.74536133-21.25854492 7.74536133H209.60131836v243.73168946z" p-id="4266" fill="#ffffff"></path><path d="M617.55114747 861.118042c-13.76037598 0-26.69677734-8.73413086-31.2286377-22.57690431-5.76782227-17.3034668 3.54309083-35.92529297 20.84655761-41.69311523 122.7722168-40.95153809 205.33447266-155.48400879 205.33447266-285.09521484 0-129.44641114-82.4798584-243.97888184-205.16967774-285.01281739-17.3034668-5.76782227-26.61437989-24.4720459-20.84655761-41.69311523 5.76782227-17.3034668 24.4720459-26.61437989 41.69311523-20.84655762 36.00769043 12.0300293 69.79064942 29.49829102 100.44250489 52.07519532 30.32226563 22.24731445 56.93664551 48.9440918 79.18395996 79.26635741 46.14257813 63.03405762 70.61462403 137.85095215 70.61462402 216.21093751 0 78.44238281-24.38964844 153.25927734-70.61462402 216.29333496-22.24731445 30.32226563-48.86169434 57.01904297-79.18395997 79.26635742-30.73425293 22.49450684-64.51721192 40.04516602-100.52490233 52.07519531-3.54309083 1.23596192-7.08618164 1.73034668-10.546875 1.73034669z m0.08239745-155.97839356c-10.62927247 0-21.09375-5.10864258-27.43835449-14.66674805-10.1348877-15.16113281-6.01501465-35.59570313 9.14611816-45.73059082 44.32983398-29.58068848 70.77941895-79.01916504 70.77941895-132.16552734S643.67114258 409.99194336 599.34130859 380.41125488c-15.16113281-10.1348877-19.1986084-30.56945801-9.14611816-45.73059082 10.1348877-15.16113281 30.56945801-19.1986084 45.73059082-9.14611816 62.62207031 41.85791016 100.03051758 111.73095703 100.03051758 186.95983887 0 75.22888184-37.40844727 145.18432617-100.03051758 186.95983887-5.68542481 3.87268067-12.0300293 5.68542481-18.29223633 5.6854248z" p-id="4267" fill="#ffffff"></path></svg>